# xmcd
#
# Track frame offsets:
#	150
#	10627
#	21002
#	37591
#	50734
#	62449
#	74619
#	86290
#	99538
#	110189
#	125735
#	139433
#	154712
#	172737
#	187249
#	207128
#	221338
#
# Disc length: 3126 seconds
#
# Revision: 0
# Processed by: cddbd v1.4PL0 Copyright (c) Steve Scherf et al.
# Submitted via: EasyCDDAExtractor 4.6.9.1
#
DISCID=e90c3411
DTITLE=Nicole Leblanc - Vol 1&2
DYEAR=1900
DGENRE=
TTITLE0=Six Roses
TTITLE1=La Vie Cruel
TTITLE2=Maman
TTITLE3=J'Avait Autrefois Une Amie
TTITLE4=Les Gros Trucks
TTITLE5=Les Enfants Perdus
TTITLE6=Ya Rien La
TTITLE7=La Vie Dans Un Reve
TTITLE8=Une Soiree Cher
TTITLE9=Maman Nous A Tous Quitter
TTITLE10=Les Enfants Disparus
TTITLE11=Une Peine Qui Dure La Vie
TTITLE12=Ce Qu'on A Perdu
TTITLE13=Mon Petit Bobby
TTITLE14=Si Un Enfant Savait
TTITLE15=Une Autre Fois
TTITLE16=Prisonnier D'Amour
EXTD=
EXTT0=
EXTT1=
EXTT2=
EXTT3=
EXTT4=
EXTT5=
EXTT6=
EXTT7=
EXTT8=
EXTT9=
EXTT10=
EXTT11=
EXTT12=
EXTT13=
EXTT14=
EXTT15=
EXTT16=
PLAYORDER=
